<svg width="15" height="8" viewBox="0 0 15 8" fill="none" xmlns="http://www.w3.org/2000/svg">
<path d="M3.09042e-05 0.62793C0.000865344 0.541704 0.0166896 0.461527 0.0478825 0.387695C0.078972 0.314133 0.125353 0.246792 0.186554 0.185547C0.217329 0.154773 0.249423 0.127588 0.283234 0.104492C0.384454 0.0353336 0.499778 0.000416257 0.627961 -2.74491e-08L0.751008 0.0117187C0.7866 0.0185732 0.820423 0.0298648 0.853547 0.0429687C0.864276 0.0472111 0.874325 0.05272 0.884797 0.0576171C0.905872 0.0674786 0.926288 0.0783043 0.94632 0.0908203C0.95883 0.0986313 0.971326 0.106389 0.98343 0.115234C1.01208 0.136184 1.04103 0.158801 1.06741 0.185547L7.49808 6.6123L13.9278 0.183593C14.05 0.0613707 14.1971 0.000841474 14.3682 0.0019525C14.4211 0.00231489 14.4713 0.0103987 14.5196 0.0224603C14.5457 0.0289572 14.571 0.0369948 14.5957 0.0468744C14.6033 0.0499252 14.6107 0.0532673 14.6182 0.05664C14.6459 0.0690492 14.6723 0.0837682 14.6983 0.100585C14.7059 0.10556 14.7133 0.110853 14.7207 0.11621C14.751 0.13777 14.7819 0.16061 14.8096 0.188476C14.8402 0.219113 14.8668 0.25145 14.8897 0.285156C14.9587 0.386261 14.9932 0.501619 14.9932 0.629882C14.9932 0.667933 14.9886 0.704585 14.9825 0.740234C14.9804 0.752165 14.9774 0.763727 14.9746 0.77539C14.9692 0.7988 14.9623 0.821419 14.9541 0.843749C14.9494 0.856554 14.9451 0.869386 14.9395 0.881835C14.9253 0.913329 14.9096 0.944398 14.8897 0.973632C14.8667 1.00726 14.8402 1.03969 14.8096 1.07031L8.44535 7.4375C8.4293 7.45361 8.41107 7.46735 8.39457 7.48242C8.27281 7.59375 8.14011 7.67807 7.99418 7.73242C7.97113 7.74108 7.94788 7.74841 7.92484 7.75586C7.82389 7.78852 7.72309 7.81072 7.62211 7.82031L7.49808 7.82617C7.44082 7.82617 7.38347 7.8219 7.32621 7.81445C7.31281 7.8127 7.29957 7.80978 7.28617 7.80762C7.19128 7.79239 7.0959 7.76808 7.00101 7.73242C6.94928 7.71296 6.89931 7.6896 6.85062 7.66309C6.8262 7.64988 6.80202 7.63607 6.77835 7.62109C6.77159 7.61678 6.76455 7.61285 6.75785 7.6084C6.75063 7.60363 6.7435 7.59869 6.73636 7.59375L6.65531 7.53223C6.61961 7.50304 6.58455 7.47124 6.55082 7.4375L0.181672 1.07129C0.0589507 0.948568 -0.00157733 0.800604 3.09042e-05 0.62793Z" fill="#747E89"/>
</svg>
