<svg width="9" height="16" viewBox="0 0 9 16" fill="none" xmlns="http://www.w3.org/2000/svg">
<path d="M0.000976521 14.6367L0.0126953 14.5136L0.0146484 14.499L0.0166015 14.4853C0.0224246 14.4552 0.0299782 14.4264 0.0380859 14.4003L0.0634765 14.3291C0.0698809 14.3129 0.0765359 14.2992 0.0800781 14.2919C0.0815878 14.2889 0.084518 14.2841 0.0849609 14.2832C0.0855241 14.282 0.0858715 14.2813 0.0859374 14.2812C0.100005 14.2511 0.115871 14.2193 0.135742 14.1875L0.172851 14.1328C0.197002 14.0997 0.230575 14.0549 0.274414 14.0117L0.275391 14.0127L6.48926 7.79585L0.271484 1.5771C0.0933061 1.39869 0.000325535 1.17458 0.00195248 0.922808C0.00255826 0.840688 0.0150756 0.766005 0.0312493 0.701128L0.0683587 0.585894L0.0830072 0.551714C0.102478 0.508344 0.124641 0.468338 0.148437 0.431597L0.149413 0.43062C0.158564 0.416607 0.167545 0.40346 0.171874 0.397417L0.172851 0.398394C0.195332 0.366839 0.229388 0.317236 0.276367 0.270464L0.277343 0.27144C0.299304 0.24953 0.32138 0.228227 0.344726 0.20894L0.416015 0.15523C0.531085 0.0767565 0.658622 0.0289688 0.792968 0.00972172L0.929687 -4.39097e-05C0.991147 1.86402e-06 1.04704 0.00714011 1.09082 0.0146045C1.1128 0.0183744 1.13936 0.0252437 1.14355 0.0263233C1.17924 0.0346555 1.21407 0.0454759 1.24707 0.0575733C1.25087 0.0589504 1.27998 0.0689639 1.30469 0.0800342C1.34331 0.0974197 1.39267 0.121397 1.44238 0.15523C1.49069 0.188203 1.53796 0.227484 1.58203 0.27144L7.94922 6.6357L7.94922 6.63472L8.00391 6.69624C8.13758 6.8425 8.24413 7.00763 8.31348 7.19332L8.34082 7.27535C8.37917 7.39387 8.40698 7.51699 8.41894 7.64253L8.41992 7.64937L8.41992 7.65621L8.42578 7.78023L8.42578 7.79488C8.42578 7.86686 8.42092 7.93793 8.41211 8.00582C8.41022 8.02022 8.40763 8.03344 8.40625 8.04097C8.4046 8.04997 8.40375 8.05224 8.40332 8.05464C8.38517 8.16764 8.35655 8.28272 8.31348 8.39742C8.28858 8.46359 8.25886 8.52656 8.22656 8.58589L8.22559 8.58589C8.21038 8.61398 8.19319 8.64512 8.17383 8.67574C8.17325 8.67668 8.1731 8.67759 8.17187 8.67964C8.16964 8.68334 8.1643 8.69195 8.1582 8.70113L8.15723 8.70113C8.1506 8.71112 8.14479 8.72145 8.14062 8.72749L8.13281 8.73824L8.07129 8.81929L8.06445 8.82808C8.02873 8.87175 7.98964 8.91363 7.94922 8.95406L1.58301 15.3232C1.40355 15.5026 1.17828 15.5951 0.924805 15.5927C0.803184 15.5915 0.683164 15.5691 0.570312 15.5214C0.45813 15.4739 0.359045 15.4039 0.273437 15.3183C0.231618 15.2764 0.191169 15.2298 0.15625 15.1787C0.0519681 15.0257 0.000605945 14.8508 -4.05118e-08 14.666L-4.11521e-08 14.6513L0.000976521 14.6367Z" fill="white"/>
</svg>
