<svg width="15" height="8" viewBox="0 0 15 8" fill="none" xmlns="http://www.w3.org/2000/svg">
<path d="M3.09042e-05 7.19824C0.000865344 7.28447 0.0166896 7.36465 0.0478825 7.43848C0.078972 7.51204 0.125353 7.57938 0.186554 7.64063C0.217329 7.6714 0.249423 7.69858 0.283234 7.72168C0.384454 7.79084 0.499778 7.82576 0.627961 7.82617L0.751008 7.81445C0.7866 7.8076 0.820423 7.79631 0.853547 7.7832C0.864276 7.77896 0.874325 7.77345 0.884797 7.76855C0.905872 7.75869 0.926288 7.74787 0.94632 7.73535C0.95883 7.72754 0.971326 7.71978 0.98343 7.71094C1.01208 7.68999 1.04103 7.66737 1.06741 7.64063L7.49808 1.21387L13.9278 7.64258C14.05 7.7648 14.1971 7.82533 14.3682 7.82422C14.4211 7.82386 14.4713 7.81577 14.5196 7.80371C14.5457 7.79721 14.571 7.78918 14.5957 7.7793C14.6033 7.77625 14.6107 7.7729 14.6182 7.76953C14.6459 7.75712 14.6723 7.7424 14.6983 7.72559C14.7059 7.72061 14.7133 7.71532 14.7207 7.70996C14.751 7.6884 14.7819 7.66556 14.8096 7.6377C14.8402 7.60706 14.8668 7.57472 14.8897 7.54102C14.9587 7.43991 14.9932 7.32455 14.9932 7.19629C14.9932 7.15824 14.9886 7.12159 14.9825 7.08594C14.9804 7.07401 14.9774 7.06245 14.9746 7.05078C14.9692 7.02737 14.9623 7.00475 14.9541 6.98242C14.9494 6.96962 14.9451 6.95679 14.9395 6.94434C14.9253 6.91284 14.9096 6.88177 14.8897 6.85254C14.8667 6.81891 14.8402 6.78648 14.8096 6.75586L8.44535 0.388672C8.4293 0.372561 8.41107 0.358817 8.39457 0.34375C8.27281 0.232417 8.14011 0.148107 7.99418 0.0937503C7.97113 0.0850958 7.94788 0.0777621 7.92484 0.0703128C7.82389 0.0376474 7.72309 0.0154497 7.62211 0.00585971L7.49808 3.27752e-07C7.44082 3.25248e-07 7.38347 0.00427442 7.32621 0.0117191C7.31281 0.0134754 7.29957 0.016391 7.28617 0.018555C7.19128 0.0337777 7.0959 0.0580883 7.00101 0.0937503C6.94928 0.113208 6.89931 0.136576 6.85062 0.163086C6.8262 0.176288 6.80202 0.190107 6.77835 0.205078C6.77159 0.209389 6.76455 0.213318 6.75785 0.217774C6.75063 0.222541 6.7435 0.227485 6.73636 0.232422L6.65531 0.293946C6.61961 0.323135 6.58455 0.354936 6.55082 0.388672L0.181672 6.75488C0.0589507 6.8776 -0.00157733 7.02557 3.09042e-05 7.19824Z" fill="#747E89"/>
</svg>
