<svg width="24" height="24" viewBox="0 0 24 24" fill="none" xmlns="http://www.w3.org/2000/svg">
<mask id="mask0_375_15319" style="mask-type:alpha" maskUnits="userSpaceOnUse" x="0" y="0" width="24" height="24">
<rect width="24" height="24" fill="#D9D9D9"/>
</mask>
<g mask="url(#mask0_375_15319)">
<path d="M12.5253 14.475L16.1503 10.85C16.2003 10.8 16.2378 10.7458 16.2628 10.6875C16.2878 10.6292 16.3003 10.5667 16.3003 10.5C16.3003 10.3667 16.2545 10.25 16.1628 10.15C16.0711 10.05 15.9503 10 15.8003 10L8.20029 10C8.05029 10 7.92946 10.05 7.83779 10.15C7.74613 10.25 7.70029 10.3667 7.70029 10.5C7.70029 10.5333 7.75029 10.65 7.85029 10.85L11.4753 14.475C11.5586 14.5583 11.642 14.6167 11.7253 14.65C11.8086 14.6833 11.9003 14.7 12.0003 14.7C12.1003 14.7 12.192 14.6833 12.2753 14.65C12.3586 14.6167 12.442 14.5583 12.5253 14.475Z" fill="#292929"/>
</g>
</svg>
