<svg width="20" height="20" viewBox="0 0 20 20" fill="none" xmlns="http://www.w3.org/2000/svg">
<path d="M5.78613 16.79L5.79785 16.6669L5.79981 16.6523L5.80176 16.6386C5.80758 16.6085 5.81514 16.5797 5.82324 16.5537L5.84863 16.4824C5.85504 16.4662 5.86169 16.4525 5.86524 16.4453C5.86674 16.4422 5.86968 16.4374 5.87012 16.4365C5.87068 16.4353 5.87103 16.4347 5.87109 16.4345C5.88516 16.4045 5.90103 16.3726 5.9209 16.3408L5.95801 16.2861C5.98216 16.2531 6.01573 16.2082 6.05957 16.165L6.06055 16.166L12.2744 9.94918L6.05664 3.73043C5.87846 3.55202 5.78548 3.3279 5.78711 3.07613C5.78772 2.99401 5.80023 2.91933 5.81641 2.85445L5.85352 2.73921L5.86816 2.70504C5.88764 2.66166 5.9098 2.62166 5.93359 2.58492L5.93457 2.58394C5.94372 2.56993 5.9527 2.55678 5.95703 2.55074L5.95801 2.55171C5.98049 2.52016 6.01454 2.47056 6.06152 2.42379L6.0625 2.42476C6.08446 2.40285 6.10654 2.38155 6.12988 2.36226L6.20117 2.30855C6.31624 2.23008 6.44378 2.18229 6.57813 2.16304L6.71484 2.15328C6.7763 2.15332 6.8322 2.16046 6.87598 2.16793C6.89796 2.1717 6.92452 2.17856 6.92871 2.17964C6.96439 2.18798 6.99922 2.1988 7.03223 2.21089C7.03603 2.21227 7.06514 2.22228 7.08984 2.23336C7.12847 2.25074 7.17783 2.27472 7.22754 2.30855C7.27585 2.34152 7.32312 2.3808 7.36719 2.42476L13.7344 8.78902L13.7344 8.78804L13.7891 8.84957C13.9227 8.99582 14.0293 9.16095 14.0986 9.34664L14.126 9.42867C14.1643 9.54719 14.1921 9.67031 14.2041 9.79586L14.2051 9.80269L14.2051 9.80953L14.2109 9.93355L14.2109 9.9482C14.2109 10.0202 14.2061 10.0912 14.1973 10.1591C14.1954 10.1735 14.1928 10.1868 14.1914 10.1943C14.1898 10.2033 14.1889 10.2056 14.1885 10.208C14.1703 10.321 14.1417 10.436 14.0986 10.5507C14.0737 10.6169 14.044 10.6799 14.0117 10.7392L14.0107 10.7392C13.9955 10.7673 13.9784 10.7984 13.959 10.8291C13.9584 10.83 13.9583 10.8309 13.957 10.833C13.9548 10.8367 13.9495 10.8453 13.9434 10.8544L13.9424 10.8544C13.9358 10.8644 13.9299 10.8748 13.9258 10.8808L13.918 10.8916L13.8564 10.9726L13.8496 10.9814C13.8139 11.0251 13.7748 11.067 13.7344 11.1074L7.36816 17.4765C7.18871 17.656 6.96344 17.7484 6.70996 17.7461C6.58834 17.7448 6.46832 17.7224 6.35547 17.6748C6.24329 17.6272 6.1442 17.5572 6.05859 17.4716C6.01677 17.4298 5.97633 17.3831 5.94141 17.332C5.83713 17.179 5.78576 17.0042 5.78516 16.8193L5.78516 16.8046L5.78613 16.79Z" fill="#464D53"/>
</svg>
