<svg width="11" height="14" viewBox="0 0 11 14" fill="none" xmlns="http://www.w3.org/2000/svg">
<path d="M1.29686 6.88956C1.29686 7.06248 1.30767 7.23269 1.32928 7.4002C1.35089 7.56771 1.38872 7.73252 1.44276 7.89463C1.49679 8.07835 1.49139 8.25397 1.42655 8.42148C1.3617 8.58899 1.24823 8.71057 1.08612 8.78622C0.913205 8.87268 0.742992 8.88078 0.575481 8.81054C0.40797 8.74029 0.297197 8.61331 0.243161 8.42959C0.156704 8.18102 0.0945626 7.92705 0.0567376 7.66768C0.0189125 7.40831 0 7.14894 0 6.88956C0 5.44141 0.502533 4.20939 1.5076 3.19352C2.51266 2.17764 3.73928 1.66971 5.18744 1.66971H5.30091L4.71733 1.08612C4.59845 0.967241 4.53901 0.815941 4.53901 0.632219C4.53901 0.448497 4.59845 0.297197 4.71733 0.178318C4.8362 0.0594394 4.9875 0 5.17123 0C5.35495 0 5.50625 0.0594394 5.62513 0.178318L7.31104 1.86424C7.44073 1.99392 7.50557 2.14522 7.50557 2.31814C7.50557 2.49105 7.44073 2.64235 7.31104 2.77204L5.62513 4.45795C5.50625 4.57683 5.35495 4.63627 5.17123 4.63627C4.9875 4.63627 4.8362 4.57683 4.71733 4.45795C4.59845 4.33908 4.53901 4.18777 4.53901 4.00405C4.53901 3.82033 4.59845 3.66903 4.71733 3.55015L5.30091 2.96657H5.18744C4.10672 2.96657 3.18811 3.34752 2.43161 4.10942C1.67511 4.87133 1.29686 5.79804 1.29686 6.88956ZM9.07801 6.82472C9.07801 6.65181 9.06721 6.48159 9.04559 6.31408C9.02398 6.14657 8.98615 5.98176 8.93212 5.81966C8.87808 5.63593 8.88348 5.46032 8.94833 5.29281C9.01317 5.1253 9.12665 5.00372 9.28875 4.92807C9.46167 4.84161 9.63188 4.8335 9.79939 4.90375C9.9669 4.974 10.0777 5.10098 10.1317 5.2847C10.2182 5.53327 10.2803 5.78723 10.3181 6.04661C10.356 6.30598 10.3749 6.56535 10.3749 6.82472C10.3749 8.27288 9.87234 9.5049 8.86727 10.5208C7.86221 11.5366 6.6356 12.0446 5.18744 12.0446H5.07396L5.65755 12.6282C5.77643 12.747 5.83587 12.8983 5.83587 13.0821C5.83587 13.2658 5.77643 13.4171 5.65755 13.536C5.53867 13.6548 5.38737 13.7143 5.20365 13.7143C5.01993 13.7143 4.86863 13.6548 4.74975 13.536L3.06383 11.8501C2.93414 11.7204 2.8693 11.5691 2.8693 11.3962C2.8693 11.2232 2.93414 11.0719 3.06383 10.9423L4.74975 9.25633C4.86863 9.13745 5.01993 9.07801 5.20365 9.07801C5.38737 9.07801 5.53867 9.13745 5.65755 9.25633C5.77643 9.37521 5.83587 9.52651 5.83587 9.71023C5.83587 9.89396 5.77643 10.0453 5.65755 10.1641L5.07396 10.7477H5.18744C6.26815 10.7477 7.18676 10.3668 7.94326 9.60486C8.69976 8.84296 9.07801 7.91625 9.07801 6.82472Z" fill="#464D53"/>
</svg>
