<svg width="20" height="20" viewBox="0 0 20 20" fill="none" xmlns="http://www.w3.org/2000/svg">
<path d="M3.33334 16.6663C2.87501 16.6663 2.48278 16.5033 2.15667 16.1772C1.83056 15.8511 1.66723 15.4586 1.66667 14.9997V4.99967C1.66667 4.54134 1.83001 4.14912 2.15667 3.82301C2.48334 3.4969 2.87556 3.33356 3.33334 3.33301H16.6667C17.125 3.33301 17.5175 3.49634 17.8442 3.82301C18.1708 4.14967 18.3339 4.5419 18.3333 4.99967V14.9997C18.3333 15.458 18.1703 15.8505 17.8442 16.1772C17.5181 16.5038 17.1256 16.6669 16.6667 16.6663H3.33334ZM10 10.833L3.33334 6.66634V14.9997H16.6667V6.66634L10 10.833ZM10 9.16634L16.6667 4.99967H3.33334L10 9.16634ZM3.33334 6.66634V4.99967V14.9997V6.66634Z" fill="#949EAC"/>
</svg>
