<svg width="24" height="24" viewBox="0 0 24 24" fill="none" xmlns="http://www.w3.org/2000/svg">
<rect width="24" height="24" rx="12" fill="white"/>
<path d="M10.0714 7.63216C10.4701 6.4655 12.0821 6.43016 12.5547 7.52616L12.5947 7.63283L13.1327 9.20616C13.256 9.56699 13.4553 9.89717 13.717 10.1744C13.9788 10.4517 14.2969 10.6696 14.6501 10.8135L14.7947 10.8675L16.3681 11.4048C17.5347 11.8035 17.5701 13.4155 16.4747 13.8882L16.3681 13.9282L14.7947 14.4662C14.4338 14.5894 14.1035 14.7886 13.8261 15.0503C13.5487 15.3121 13.3307 15.6303 13.1867 15.9835L13.1327 16.1275L12.5954 17.7015C12.1967 18.8682 10.5847 18.9035 10.1127 17.8082L10.0714 17.7015L9.53407 16.1282C9.41086 15.7672 9.21165 15.4369 8.9499 15.1595C8.68814 14.8821 8.36993 14.6641 8.01674 14.5202L7.87274 14.4662L6.2994 13.9288C5.13207 13.5302 5.09674 11.9182 6.19274 11.4462L6.2994 11.4048L7.87274 10.8675C8.23356 10.7442 8.56374 10.545 8.84102 10.2832C9.11829 10.0215 9.33621 9.70329 9.48007 9.35016L9.53407 9.20616L10.0714 7.63216ZM16.6667 5.3335C16.7915 5.3335 16.9137 5.36848 17.0195 5.43448C17.1253 5.50047 17.2105 5.59483 17.2654 5.70683L17.2974 5.78483L17.5307 6.46883L18.2154 6.70216C18.3404 6.74463 18.45 6.82324 18.5302 6.92804C18.6105 7.03284 18.6578 7.15911 18.6663 7.29084C18.6747 7.42258 18.6438 7.55385 18.5775 7.66802C18.5113 7.78219 18.4126 7.87412 18.2941 7.93216L18.2154 7.96416L17.5314 8.1975L17.2981 8.88216C17.2555 9.00712 17.1769 9.11663 17.072 9.19682C16.9672 9.27702 16.8409 9.32429 16.7092 9.33264C16.5774 9.341 16.4462 9.31006 16.3321 9.24375C16.2179 9.17744 16.1261 9.07874 16.0681 8.96016L16.0361 8.88216L15.8027 8.19816L15.1181 7.96483C14.9931 7.92237 14.8835 7.84375 14.8033 7.73895C14.723 7.63415 14.6756 7.50788 14.6672 7.37615C14.6588 7.24441 14.6897 7.11314 14.7559 6.99897C14.8222 6.8848 14.9208 6.79287 15.0394 6.73483L15.1181 6.70283L15.8021 6.4695L16.0354 5.78483C16.0804 5.65311 16.1654 5.53877 16.2786 5.45783C16.3918 5.37689 16.5276 5.33341 16.6667 5.3335Z" fill="url(#paint0_linear_980_4598)"/>
<defs>
<linearGradient id="paint0_linear_980_4598" x1="12.032" y1="5.3335" x2="12.032" y2="18.6039" gradientUnits="userSpaceOnUse">
<stop stop-color="#B6E4FF"/>
<stop offset="1" stop-color="#25DEFF"/>
</linearGradient>
</defs>
</svg>
