<svg width="20" height="20" viewBox="0 0 20 20" fill="none" xmlns="http://www.w3.org/2000/svg">
<path d="M6.71338 17.4467C6.62715 17.4459 6.54698 17.4301 6.47315 17.3989C6.39958 17.3678 6.33224 17.3214 6.271 17.2602C6.24022 17.2294 6.21304 17.1974 6.18994 17.1635C6.12078 17.0623 6.08587 16.947 6.08545 16.8188L6.09717 16.6958C6.10402 16.6602 6.11531 16.6264 6.12842 16.5932C6.13266 16.5825 6.13817 16.5725 6.14307 16.562C6.15293 16.5409 6.16375 16.5205 6.17627 16.5005C6.18408 16.4879 6.19184 16.4755 6.20068 16.4633C6.22163 16.4347 6.24425 16.4058 6.271 16.3794L12.6978 9.9487L6.26904 3.51901C6.14682 3.39678 6.08629 3.24969 6.0874 3.07858C6.08776 3.02564 6.09585 2.97552 6.10791 2.92721C6.11441 2.9011 6.12244 2.87583 6.13232 2.85104C6.13537 2.84344 6.13872 2.83605 6.14209 2.82858C6.1545 2.80088 6.16922 2.77446 6.18603 2.7485C6.19101 2.74087 6.1963 2.73352 6.20166 2.72604C6.22322 2.69577 6.24606 2.66491 6.27393 2.63717C6.30456 2.60658 6.3369 2.58 6.37061 2.55709C6.47171 2.48811 6.58707 2.45358 6.71533 2.45358C6.75338 2.4536 6.79003 2.45822 6.82568 2.46432C6.83761 2.46636 6.84918 2.46941 6.86084 2.47213C6.88425 2.47759 6.90687 2.48444 6.9292 2.49264C6.942 2.49734 6.95483 2.50168 6.96728 2.50729C6.99878 2.52146 7.02985 2.53714 7.05908 2.55709C7.09271 2.58004 7.12514 2.60659 7.15576 2.63717L13.5229 9.00143C13.5391 9.01748 13.5528 9.03571 13.5679 9.05221C13.6792 9.17397 13.7635 9.30667 13.8179 9.4526C13.8265 9.47564 13.8339 9.4989 13.8413 9.52194C13.874 9.62289 13.8962 9.72369 13.9058 9.82467L13.9116 9.9487C13.9116 10.006 13.9073 10.0633 13.8999 10.1206C13.8981 10.134 13.8952 10.1472 13.8931 10.1606C13.8778 10.2555 13.8535 10.3509 13.8179 10.4458C13.7984 10.4975 13.775 10.5475 13.7485 10.5962C13.7353 10.6206 13.7215 10.6448 13.7065 10.6684C13.7022 10.6752 13.6983 10.6822 13.6938 10.6889C13.6891 10.6961 13.6841 10.7033 13.6792 10.7104L13.6177 10.7915C13.5885 10.8272 13.5567 10.8622 13.5229 10.896L7.15674 17.2651C7.03402 17.3878 6.88605 17.4484 6.71338 17.4467Z" fill="#4378FF"/>
</svg>
